<?xml version="1.0" standalone="no"?>
<!DOCTYPE svg PUBLIC "-//W3C//DTD SVG 20010904//EN"
 "http://www.w3.org/TR/2001/REC-SVG-20010904/DTD/svg10.dtd">
<svg version="1.0" xmlns="http://www.w3.org/2000/svg"
 width="558.000000pt" height="478.000000pt" viewBox="0 0 558.000000 478.000000"
 preserveAspectRatio="xMidYMid meet">

<g transform="translate(0.000000,478.000000) scale(0.100000,-0.100000)"
fill="#f5413f" stroke="none">
<path d="M4800 4489 c-46 -5 -87 -13 -91 -17 -4 -4 -3 -45 1 -92 5 -46 8 -86
6 -88 -6 -5 -749 -71 -756 -67 -4 2 -10 41 -13 86 -4 46 -10 86 -14 90 -6 6
-2358 -202 -2562 -226 l-53 -7 7 -94 c6 -87 6 -94 -12 -94 -10 -1 -180 -16
-378 -34 -198 -19 -361 -32 -363 -31 -2 2 -6 37 -9 79 -8 107 -9 108 -116 97
-49 -5 -93 -13 -97 -17 -5 -5 66 -835 163 -1898 l172 -1889 100 7 c55 3 103
10 106 14 4 4 3 47 -2 96 -5 49 -7 91 -4 94 2 3 172 20 376 39 271 25 374 31
379 23 4 -7 10 -48 13 -93 4 -44 10 -84 14 -87 8 -8 2572 224 2599 234 14 5
15 20 9 100 l-7 94 53 6 c140 16 702 66 706 63 2 -2 6 -41 10 -86 3 -45 11
-88 17 -95 16 -21 250 2 253 24 1 8 -75 861 -170 1895 l-172 1880 -40 1 c-22
1 -78 -2 -125 -7z m-56 -491 c7 -31 47 -490 44 -494 -5 -4 -753 -71 -757 -68
-4 4 -52 507 -48 510 1 1 169 18 372 37 204 19 373 35 377 36 4 0 10 -9 12
-21z m-3384 -305 c0 -10 9 -112 20 -228 11 -115 20 -224 20 -241 l0 -30 -375
-34 c-206 -18 -377 -31 -380 -28 -8 7 -50 496 -44 503 4 4 628 66 742 74 10 1
17 -6 17 -16z m1727 -348 c106 -22 153 -39 257 -91 93 -47 122 -67 209 -146
l52 -46 -39 -56 c-21 -30 -50 -67 -64 -83 -15 -15 -43 -48 -62 -73 -49 -62
-102 -120 -111 -120 -4 0 -36 24 -70 54 -68 60 -176 117 -254 135 -118 28
-270 10 -368 -41 -58 -32 -158 -117 -180 -155 -79 -136 -108 -257 -90 -376 41
-276 246 -458 515 -458 92 1 152 14 235 52 81 38 152 96 204 164 23 30 49 55
59 55 16 0 44 -22 190 -148 30 -27 70 -58 88 -71 18 -13 32 -31 32 -43 0 -33
-107 -163 -174 -213 -23 -16 -43 -32 -46 -36 -3 -3 -31 -23 -63 -43 -281 -179
-691 -202 -980 -55 -115 59 -264 180 -325 264 -86 118 -111 167 -153 289 -32
91 -42 158 -43 296 -2 198 17 285 98 442 51 100 94 158 181 243 63 61 73 70
135 116 64 46 249 129 291 129 10 0 27 4 37 10 23 14 201 28 289 24 39 -2 107
-11 150 -19z m1751 -367 c13 -138 19 -254 15 -258 -10 -9 -742 -74 -749 -67
-6 6 -54 500 -49 505 3 3 682 68 735 71 l26 1 22 -252z m-3408 -70 c1 -7 11
-122 23 -255 l23 -243 -31 -5 c-52 -8 -726 -67 -730 -63 -7 8 -47 500 -41 506
7 6 633 68 719 71 23 1 37 -4 37 -11z m3460 -480 c0 -7 10 -120 22 -251 11
-130 19 -240 15 -243 -6 -6 -748 -76 -753 -71 -3 3 -37 352 -46 472 l-3 40
335 31 c392 37 430 39 430 22z m-3390 -300 c4 -21 47 -504 46 -505 -5 -6 -752
-70 -757 -64 -7 6 -53 501 -47 505 11 10 757 72 758 64z m3463 -520 c15 -131
41 -458 36 -462 -3 -3 -751 -75 -756 -72 -4 3 -46 506 -42 510 2 2 171 20 374
39 204 19 373 35 376 36 3 0 9 -23 12 -51z m-3389 -290 c3 -18 12 -114 21
-213 8 -99 18 -201 21 -226 l5 -45 -376 -34 c-230 -21 -379 -30 -384 -24 -8 9
-54 494 -48 501 3 2 656 66 739 72 12 1 19 -9 22 -31z"/>
</g>
</svg>